<svg width="45" height="45" viewBox="0 0 45 45" fill="none" xmlns="http://www.w3.org/2000/svg">
<rect width="45" height="45" rx="22.5" fill="#0651C1"/>
<path d="M28.6555 26.6658C28.6555 27.5638 28.431 28.408 27.982 29.1982C27.551 29.9885 26.9044 30.653 26.0423 31.1918C25.1982 31.7306 24.1924 32.0539 23.025 32.1616V34.3438H21.2739V32.1616C19.5856 32 18.2206 31.4702 17.179 30.5722C16.1373 29.6742 15.6164 28.4888 15.6164 27.016H18.9031C18.957 27.7165 19.1815 28.3002 19.5766 28.7672C19.9718 29.2162 20.5375 29.5035 21.2739 29.6293V23.7024C20.0705 23.3971 19.0917 23.0917 18.3374 22.7864C17.5831 22.4631 16.9365 21.9603 16.3977 21.2778C15.8768 20.5953 15.6164 19.6614 15.6164 18.476C15.6164 16.9853 16.1373 15.755 17.179 14.7852C18.2206 13.7973 19.5856 13.2226 21.2739 13.061V10.8788H23.025V13.061C24.6055 13.2047 25.8717 13.7075 26.8236 14.5696C27.7934 15.4138 28.3412 16.5812 28.4669 18.0719H25.1802C25.1263 17.5151 24.9108 17.0212 24.5337 16.5902C24.1565 16.1412 23.6536 15.8358 23.025 15.6742V21.4933C24.2283 21.7807 25.2072 22.086 25.9615 22.4093C26.7158 22.7146 27.3534 23.2085 27.8742 23.891C28.3951 24.5555 28.6555 25.4805 28.6555 26.6658ZM18.7415 18.3143C18.7415 19.0507 18.957 19.6254 19.3881 20.0385C19.8371 20.4516 20.4657 20.7839 21.2739 21.0353V15.5934C20.5016 15.6832 19.882 15.9616 19.415 16.4285C18.966 16.8955 18.7415 17.5241 18.7415 18.3143ZM23.025 29.6293C23.8152 29.5035 24.4349 29.1892 24.8839 28.6863C25.3329 28.1655 25.5574 27.5459 25.5574 26.8275C25.5574 26.1091 25.3329 25.5523 24.8839 25.1572C24.4528 24.7441 23.8332 24.4118 23.025 24.1604V29.6293Z" fill="white"/>
</svg>
