<svg width="22" height="22" viewBox="0 0 22 22" fill="none" xmlns="http://www.w3.org/2000/svg">
<path d="M16.6 21.56H5.39996C3.57996 21.56 1.91996 20.16 1.61996 18.37L0.289961 10.4C0.0699605 9.16 0.679961 7.57001 1.66996 6.78001L8.59996 1.23001C9.93996 0.150005 12.05 0.160005 13.4 1.24001L20.33 6.78001C21.31 7.57001 21.91 9.16 21.71 10.4L20.38 18.36C20.08 20.13 18.38 21.56 16.6 21.56ZM10.99 1.93001C10.46 1.93001 9.92996 2.09001 9.53996 2.40001L2.60996 7.96001C2.04996 8.41001 1.64996 9.45 1.76996 10.16L3.09996 18.12C3.27996 19.17 4.32996 20.06 5.39996 20.06H16.6C17.67 20.06 18.72 19.17 18.9 18.11L20.23 10.15C20.34 9.45 19.94 8.39001 19.39 7.95001L12.46 2.41001C12.06 2.09001 11.52 1.93001 10.99 1.93001Z" fill="#0651C1"/>
</svg>
