<svg width="30" height="30" viewBox="0 0 30 30" fill="none" xmlns="http://www.w3.org/2000/svg">
<rect x="3" y="2" width="24" height="24" rx="12" fill="#0651C1"/>
<path d="M6.86251 17.1354C6.96866 17.2591 7.12035 17.3436 7.30176 17.3574C7.65249 17.3841 7.96485 17.116 7.99156 16.7653L8.45303 10.7062C8.47974 10.3554 8.21159 10.0431 7.86086 10.0164C7.51014 9.98965 7.19778 10.2578 7.17106 10.6085L6.7096 16.6676C6.70229 16.8435 6.75637 17.0118 6.86251 17.1354Z" fill="white"/>
<path d="M7.33055 11.0708L16.8275 22.1336C17.0566 22.4004 17.4678 22.4317 17.7346 22.2027C18.0014 21.9736 18.0327 21.5624 17.8037 21.2956L8.30668 10.2328C8.07764 9.96597 7.66644 9.93466 7.39963 10.1637C7.13282 10.3927 7.1015 10.8039 7.33055 11.0708Z" fill="white"/>
<path d="M20.719 18.7929C20.8251 18.9165 20.9768 19.0011 21.1582 19.0149C21.5089 19.0416 21.8213 18.7734 21.848 18.4227L22.3095 12.3636C22.3362 12.0129 22.068 11.7005 21.7173 11.6738C21.3666 11.6471 21.0542 11.9152 21.0275 12.266L20.566 18.3251C20.5531 18.4944 20.6128 18.6692 20.719 18.7929Z" fill="white"/>
<path d="M11.2222 7.73005L20.7191 18.7929C20.9482 19.0597 21.3594 19.091 21.6262 18.862C21.893 18.6329 21.9243 18.2217 21.6953 17.9549L12.1983 6.89209C11.9692 6.62528 11.558 6.59396 11.2912 6.823C11.0244 7.05205 10.9931 7.46324 11.2222 7.73005Z" fill="white"/>
</svg>
