<svg width="55" height="55" viewBox="0 0 55 55" fill="none" xmlns="http://www.w3.org/2000/svg">
<g clip-path="url(#clip0_3_799)">
<path d="M43.5417 22.9167H45.8333C46.4411 22.9167 47.024 23.1581 47.4538 23.5879C47.8836 24.0177 48.125 24.6005 48.125 25.2083V48.125C48.125 48.7328 47.8836 49.3157 47.4538 49.7455C47.024 50.1752 46.4411 50.4167 45.8333 50.4167H9.16667C8.55888 50.4167 7.97598 50.1752 7.54621 49.7455C7.11644 49.3157 6.875 48.7328 6.875 48.125V25.2083C6.875 24.6005 7.11644 24.0177 7.54621 23.5879C7.97598 23.1581 8.55888 22.9167 9.16667 22.9167H11.4583V20.625C11.4583 18.5184 11.8733 16.4324 12.6794 14.4861C13.4856 12.5399 14.6672 10.7714 16.1568 9.28183C17.6464 7.79222 19.4149 6.6106 21.3611 5.80444C23.3074 4.99827 25.3934 4.58334 27.5 4.58334C29.6066 4.58334 31.6926 4.99827 33.6389 5.80444C35.5851 6.6106 37.3536 7.79222 38.8432 9.28183C40.3328 10.7714 41.5144 12.5399 42.3206 14.4861C43.1267 16.4324 43.5417 18.5184 43.5417 20.625V22.9167ZM38.9583 22.9167V20.625C38.9583 17.5861 37.7511 14.6716 35.6023 12.5227C33.4534 10.3739 30.5389 9.16667 27.5 9.16667C24.4611 9.16667 21.5466 10.3739 19.3977 12.5227C17.2489 14.6716 16.0417 17.5861 16.0417 20.625V22.9167H38.9583ZM25.2083 32.0833V41.25H29.7917V32.0833H25.2083Z" fill="#0651C1"/>
</g>
<defs>
<clipPath id="clip0_3_799">
<rect width="55" height="55" fill="white"/>
</clipPath>
</defs>
</svg>
