<svg width="227" height="42" viewBox="0 0 227 42" fill="none" xmlns="http://www.w3.org/2000/svg">
<path d="M12.035 31.2888C9.9175 31.2888 8.02 30.945 6.3425 30.2575C4.665 29.57 3.3175 28.5525 2.3 27.205C1.31 25.8575 0.7875 24.235 0.7325 22.3375H8.24C8.35 23.41 8.72125 24.235 9.35375 24.8125C9.98625 25.3625 10.8113 25.6375 11.8288 25.6375C12.8738 25.6375 13.6988 25.4037 14.3038 24.9363C14.9088 24.4412 15.2113 23.7675 15.2113 22.915C15.2113 22.2 14.9638 21.6087 14.4688 21.1412C14.0013 20.6737 13.41 20.2887 12.695 19.9862C12.0075 19.6837 11.0175 19.34 9.725 18.955C7.855 18.3775 6.32875 17.8 5.14625 17.2225C3.96375 16.645 2.94625 15.7925 2.09375 14.665C1.24125 13.5375 0.815 12.0662 0.815 10.2512C0.815 7.55625 1.79125 5.4525 3.74375 3.94C5.69625 2.4 8.24 1.63 11.375 1.63C14.565 1.63 17.1363 2.4 19.0888 3.94C21.0413 5.4525 22.0863 7.57 22.2238 10.2925H14.5925C14.5375 9.3575 14.1938 8.62875 13.5613 8.10625C12.9288 7.55625 12.1175 7.28125 11.1275 7.28125C10.275 7.28125 9.5875 7.515 9.065 7.9825C8.5425 8.4225 8.28125 9.06875 8.28125 9.92125C8.28125 10.8562 8.72125 11.585 9.60125 12.1075C10.4813 12.63 11.8563 13.1937 13.7263 13.7987C15.5963 14.4312 17.1088 15.0362 18.2638 15.6137C19.4463 16.1912 20.4638 17.03 21.3163 18.13C22.1688 19.23 22.595 20.6462 22.595 22.3787C22.595 24.0287 22.1688 25.5275 21.3163 26.875C20.4913 28.2225 19.2813 29.295 17.6863 30.0925C16.0913 30.89 14.2075 31.2888 12.035 31.2888ZM25.5334 19.45C25.5334 17.085 25.9734 15.0087 26.8534 13.2212C27.7609 11.4337 28.9847 10.0587 30.5247 9.09625C32.0647 8.13375 33.7834 7.6525 35.6809 7.6525C37.3034 7.6525 38.7197 7.9825 39.9297 8.6425C41.1672 9.3025 42.1159 10.1687 42.7759 11.2412V7.9825H49.8297V31H42.7759V27.7412C42.0884 28.8137 41.1259 29.68 39.8884 30.34C38.6784 31 37.2622 31.33 35.6397 31.33C33.7697 31.33 32.0647 30.8488 30.5247 29.8862C28.9847 28.8962 27.7609 27.5075 26.8534 25.72C25.9734 23.905 25.5334 21.815 25.5334 19.45ZM42.7759 19.4912C42.7759 17.7312 42.2809 16.3425 41.2909 15.325C40.3284 14.3075 39.1459 13.7987 37.7434 13.7987C36.3409 13.7987 35.1447 14.3075 34.1547 15.325C33.1922 16.315 32.7109 17.69 32.7109 19.45C32.7109 21.21 33.1922 22.6125 34.1547 23.6575C35.1447 24.675 36.3409 25.1837 37.7434 25.1837C39.1459 25.1837 40.3284 24.675 41.2909 23.6575C42.2809 22.64 42.7759 21.2512 42.7759 19.4912ZM69.0815 7.735C71.7215 7.735 73.839 8.615 75.434 10.375C77.029 12.1075 77.8265 14.5 77.8265 17.5525V31H70.814V18.5012C70.814 16.9612 70.4152 15.765 69.6177 14.9125C68.8202 14.06 67.7477 13.6337 66.4002 13.6337C65.0527 13.6337 63.9802 14.06 63.1827 14.9125C62.3852 15.765 61.9865 16.9612 61.9865 18.5012V31H54.9327V0.475H61.9865V11.0762C62.7015 10.0587 63.6777 9.2475 64.9152 8.6425C66.1527 8.0375 67.5415 7.735 69.0815 7.735ZM81.3257 19.45C81.3257 17.085 81.7657 15.0087 82.6457 13.2212C83.5532 11.4337 84.7769 10.0587 86.3169 9.09625C87.8569 8.13375 89.5757 7.6525 91.4732 7.6525C93.0957 7.6525 94.5119 7.9825 95.7219 8.6425C96.9594 9.3025 97.9082 10.1687 98.5682 11.2412V7.9825H105.622V31H98.5682V27.7412C97.8807 28.8137 96.9182 29.68 95.6807 30.34C94.4707 31 93.0544 31.33 91.4319 31.33C89.5619 31.33 87.8569 30.8488 86.3169 29.8862C84.7769 28.8962 83.5532 27.5075 82.6457 25.72C81.7657 23.905 81.3257 21.815 81.3257 19.45ZM98.5682 19.4912C98.5682 17.7312 98.0732 16.3425 97.0832 15.325C96.1207 14.3075 94.9382 13.7987 93.5357 13.7987C92.1332 13.7987 90.9369 14.3075 89.9469 15.325C88.9844 16.315 88.5032 17.69 88.5032 19.45C88.5032 21.21 88.9844 22.6125 89.9469 23.6575C90.9369 24.675 92.1332 25.1837 93.5357 25.1837C94.9382 25.1837 96.1207 24.675 97.0832 23.6575C98.0732 22.64 98.5682 21.2512 98.5682 19.4912ZM117.779 11.8187C118.604 10.5537 119.635 9.56375 120.872 8.84875C122.11 8.10625 123.485 7.735 124.997 7.735V15.2012H123.059C121.299 15.2012 119.979 15.5862 119.099 16.3562C118.219 17.0987 117.779 18.4187 117.779 20.3162V31H110.725V7.9825H117.779V11.8187ZM126.967 19.45C126.967 17.085 127.407 15.0087 128.287 13.2212C129.194 11.4337 130.418 10.0587 131.958 9.09625C133.498 8.13375 135.217 7.6525 137.114 7.6525C138.737 7.6525 140.153 7.9825 141.363 8.6425C142.6 9.3025 143.549 10.1687 144.209 11.2412V7.9825H151.263V31H144.209V27.7412C143.522 28.8137 142.559 29.68 141.322 30.34C140.112 31 138.695 31.33 137.073 31.33C135.203 31.33 133.498 30.8488 131.958 29.8862C130.418 28.8962 129.194 27.5075 128.287 25.72C127.407 23.905 126.967 21.815 126.967 19.45ZM144.209 19.4912C144.209 17.7312 143.714 16.3425 142.724 15.325C141.762 14.3075 140.579 13.7987 139.177 13.7987C137.774 13.7987 136.578 14.3075 135.588 15.325C134.625 16.315 134.144 17.69 134.144 19.45C134.144 21.21 134.625 22.6125 135.588 23.6575C136.578 24.675 137.774 25.1837 139.177 25.1837C140.579 25.1837 141.762 24.675 142.724 23.6575C143.714 22.64 144.209 21.2512 144.209 19.4912ZM175.547 10.4575C175.547 12.9325 174.736 14.9262 173.113 16.4387C171.491 17.9512 169.057 18.7075 165.812 18.7075H159.996V31H157.108V2.16625H165.812C169.03 2.16625 171.45 2.9225 173.072 4.435C174.722 5.9475 175.547 7.955 175.547 10.4575ZM165.812 16.2325C170.322 16.2325 172.577 14.3075 172.577 10.4575C172.577 8.5325 172.041 7.075 170.968 6.085C169.896 5.095 168.177 4.6 165.812 4.6H159.996V16.2325H165.812ZM179.072 19.6975C179.072 17.3875 179.526 15.3662 180.433 13.6337C181.368 11.8737 182.647 10.5262 184.27 9.59125C185.92 8.62875 187.776 8.1475 189.838 8.1475C191.983 8.1475 193.826 8.6425 195.366 9.6325C196.933 10.6225 198.061 11.8875 198.748 13.4275V8.4775H201.636V31H198.748V26.0087C198.033 27.5487 196.892 28.8275 195.325 29.845C193.785 30.835 191.942 31.33 189.797 31.33C187.762 31.33 185.92 30.8488 184.27 29.8862C182.647 28.9237 181.368 27.5625 180.433 25.8025C179.526 24.0425 179.072 22.0075 179.072 19.6975ZM198.748 19.7387C198.748 17.9237 198.377 16.3287 197.635 14.9537C196.892 13.5787 195.875 12.52 194.582 11.7775C193.317 11.035 191.915 10.6637 190.375 10.6637C188.78 10.6637 187.35 11.0212 186.085 11.7362C184.82 12.4512 183.816 13.4962 183.073 14.8712C182.358 16.2187 182.001 17.8275 182.001 19.6975C182.001 21.54 182.358 23.1625 183.073 24.565C183.816 25.94 184.82 26.9987 186.085 27.7412C187.35 28.4562 188.78 28.8137 190.375 28.8137C191.915 28.8137 193.317 28.4425 194.582 27.7C195.875 26.9575 196.892 25.8987 197.635 24.5237C198.377 23.1487 198.748 21.5537 198.748 19.7387ZM226.79 8.4775L213.425 41.6012H210.414L214.786 30.8762L205.546 8.4775H208.723L216.395 27.7L223.82 8.4775H226.79Z" fill="white"/>
</svg>
