<svg width="45" height="45" viewBox="0 0 45 45" fill="none" xmlns="http://www.w3.org/2000/svg">
<rect width="45" height="45" rx="22.5" fill="#0651C1"/>
<path d="M24.05 27.25H22.17C20.84 27.25 19.75 26.13 19.75 24.75C19.75 24.34 20.09 24 20.5 24C20.91 24 21.25 24.34 21.25 24.75C21.25 25.3 21.66 25.75 22.17 25.75H24.05C24.44 25.75 24.75 25.4 24.75 24.97C24.75 24.43 24.6 24.35 24.26 24.23L21.25 23.18C20.61 22.95 19.75 22.49 19.75 21.02C19.75 19.77 20.74 18.74 21.95 18.74H23.83C25.16 18.74 26.25 19.86 26.25 21.24C26.25 21.65 25.91 21.99 25.5 21.99C25.09 21.99 24.75 21.65 24.75 21.24C24.75 20.69 24.34 20.24 23.83 20.24H21.95C21.56 20.24 21.25 20.59 21.25 21.02C21.25 21.56 21.4 21.64 21.74 21.76L24.75 22.81C25.39 23.04 26.25 23.5 26.25 24.97C26.25 26.23 25.26 27.25 24.05 27.25Z" fill="white"/>
<path d="M23 28.25C22.59 28.25 22.25 27.91 22.25 27.5V18.5C22.25 18.09 22.59 17.75 23 17.75C23.41 17.75 23.75 18.09 23.75 18.5V27.5C23.75 27.91 23.41 28.25 23 28.25Z" fill="white"/>
<path d="M23 33.75C17.07 33.75 12.25 28.93 12.25 23C12.25 17.07 17.07 12.25 23 12.25C23.41 12.25 23.75 12.59 23.75 13C23.75 13.41 23.41 13.75 23 13.75C17.9 13.75 13.75 17.9 13.75 23C13.75 28.1 17.9 32.25 23 32.25C28.1 32.25 32.25 28.1 32.25 23C32.25 22.59 32.59 22.25 33 22.25C33.41 22.25 33.75 22.59 33.75 23C33.75 28.93 28.93 33.75 23 33.75Z" fill="white"/>
<path d="M33 17.75C32.59 17.75 32.25 17.41 32.25 17V13.75H29C28.59 13.75 28.25 13.41 28.25 13C28.25 12.59 28.59 12.25 29 12.25H33C33.41 12.25 33.75 12.59 33.75 13V17C33.75 17.41 33.41 17.75 33 17.75Z" fill="white"/>
<path d="M27.9999 18.75C27.8099 18.75 27.6199 18.68 27.4699 18.53C27.1799 18.24 27.1799 17.76 27.4699 17.47L32.4699 12.47C32.7599 12.18 33.2399 12.18 33.5299 12.47C33.8199 12.76 33.8199 13.24 33.5299 13.53L28.5299 18.53C28.3799 18.68 28.1899 18.75 27.9999 18.75Z" fill="white"/>
</svg>
